<svg xmlns="http://www.w3.org/2000/svg" width="1200" height="800">
<rect width="100%" height="100%" fill="#e9eef0"/>
<g transform="translate(120,80) scale(0.6)">
  <rect x="0" y="0" width="600" height="600" rx="8" fill="#2b7a78"/>
  <g fill="#ffffff" opacity="0.95">
    <rect x="30" y="30" width="40" height="40" rx="4"/>
    <rect x="90" y="30" width="40" height="40" rx="4"/>
    <rect x="150" y="30" width="40" height="40" rx="4"/>
    <rect x="210" y="30" width="40" height="40" rx="4"/>
    <rect x="30" y="90" width="40" height="40" rx="4"/>
    <rect x="90" y="90" width="40" height="40" rx="4"/>
    <rect x="150" y="90" width="40" height="40" rx="4"/>
    <rect x="210" y="90" width="40" height="40" rx="4"/>
    <rect x="30" y="150" width="40" height="40" rx="4"/>
    <rect x="90" y="150" width="40" height="40" rx="4"/>
    <rect x="150" y="150" width="40" height="40" rx="4"/>
    <rect x="210" y="150" width="40" height="40" rx="4"/>
    <rect x="30" y="210" width="40" height="40" rx="4"/>
    <rect x="90" y="210" width="40" height="40" rx="4"/>
    <rect x="150" y="210" width="40" height="40" rx="4"/>
    <rect x="210" y="210" width="40" height="40" rx="4"/>
    <rect x="30" y="270" width="40" height="40" rx="4"/>
    <rect x="90" y="270" width="40" height="40" rx="4"/>
    <rect x="150" y="270" width="40" height="40" rx="4"/>
    <rect x="210" y="270" width="40" height="40" rx="4"/>
  </g>
</g>
<text x="30" y="780" font-family="Arial" font-size="40" fill="#333">Utrecht</text>
</svg>